<?xml version="1.0" standalone="no"?>
<!DOCTYPE svg PUBLIC "-//W3C//DTD SVG 20010904//EN"
 "http://www.w3.org/TR/2001/REC-SVG-20010904/DTD/svg10.dtd">
<svg version="1.0" xmlns="http://www.w3.org/2000/svg"
 width="700.000000pt" height="700.000000pt" viewBox="0 0 700.000000 700.000000"
 preserveAspectRatio="xMidYMid meet">
<metadata>
Created by potrace 1.14, written by Peter Selinger 2001-2017
</metadata>
<g transform="translate(0.000000,700.000000) scale(0.100000,-0.100000)"
fill="#000000" stroke="none">
<path d="M1019 6996 c-2 -2 -24 -7 -49 -10 -106 -14 -262 -66 -360 -119 -319
-174 -530 -466 -594 -822 -12 -68 -14 -455 -14 -2540 -1 -1553 3 -2482 9
-2520 73 -449 361 -790 784 -929 175 -57 31 -54 2710 -55 2458 0 2470 0 2565
20 197 43 337 105 480 215 234 179 400 458 437 739 4 33 8 1183 8 2555 0 2706
4 2482 -48 2665 -69 244 -268 503 -487 634 -92 55 -249 121 -325 137 -167 34
-98 33 -2641 33 -1359 1 -2473 -1 -2475 -3z"/>
</g>
</svg>
